<svg width="843" height="238" viewBox="0 0 843 238" fill="none" xmlns="http://www.w3.org/2000/svg">
    <path d="M15.2586 231V186.54L100.178 116.293C105.809 111.624 110.626 107.252 114.627 103.177C118.703 99.0272 121.815 94.7665 123.964 90.3945C126.187 86.0226 127.298 81.169 127.298 75.8338C127.298 69.9799 126.039 64.9781 123.519 60.8285C121.074 56.6788 117.665 53.4925 113.293 51.2695C108.921 48.9724 103.883 47.8239 98.1769 47.8239C92.4712 47.8239 87.4323 48.9724 83.0604 51.2695C78.7626 53.5666 75.4281 56.9382 73.0569 61.3842C70.6857 65.8302 69.5 71.2396 69.5 77.6122H10.8125C10.8125 61.6065 14.4064 47.8239 21.5942 36.2642C28.7819 24.7045 38.9336 15.8125 52.0494 9.58806C65.1652 3.36363 80.541 0.251412 98.1769 0.251412C116.406 0.251412 132.189 3.17838 145.527 9.03231C158.939 14.8121 169.276 22.9632 176.538 33.4854C183.874 44.0077 187.542 56.3454 187.542 70.4986C187.542 79.2424 185.726 87.9492 182.096 96.619C178.465 105.215 171.944 114.737 162.533 125.185C153.122 135.633 139.747 148.082 122.408 162.531L101.067 180.315V181.649H189.987V231H15.2586ZM316.754 237.224C296.08 237.15 278.222 232.371 263.18 222.886C248.138 213.401 236.541 199.73 228.39 181.871C220.239 164.013 216.2 142.598 216.274 117.626C216.348 92.5805 220.424 71.3137 228.501 53.826C236.652 36.3383 248.212 23.0373 263.18 13.9229C278.222 4.80859 296.08 0.251412 316.754 0.251412C337.428 0.251412 355.287 4.84564 370.329 14.0341C385.371 23.1484 396.968 36.4494 405.119 53.9371C413.27 71.4248 417.309 92.6546 417.235 117.626C417.235 142.746 413.159 164.236 405.008 182.094C396.857 199.952 385.26 213.623 370.218 223.108C355.25 232.519 337.428 237.224 316.754 237.224ZM316.754 186.984C327.425 186.984 336.169 181.427 342.986 170.312C349.877 159.123 353.286 141.561 353.212 117.626C353.212 101.991 351.656 89.2089 348.544 79.2795C345.431 69.35 341.134 62.0141 335.65 57.2717C330.167 52.4551 323.868 50.0469 316.754 50.0469C306.084 50.0469 297.377 55.4562 290.634 66.2748C283.891 77.0935 280.445 94.2107 280.297 117.626C280.223 133.558 281.742 146.674 284.854 156.974C287.966 167.2 292.264 174.758 297.748 179.648C303.305 184.539 309.641 186.984 316.754 186.984ZM446.245 231V186.54L531.164 116.293C536.796 111.624 541.612 107.252 545.614 103.177C549.689 99.0272 552.801 94.7665 554.95 90.3945C557.173 86.0226 558.285 81.169 558.285 75.8338C558.285 69.9799 557.025 64.9781 554.506 60.8285C552.06 56.6788 548.652 53.4925 544.28 51.2695C539.908 48.9724 534.869 47.8239 529.163 47.8239C523.457 47.8239 518.419 48.9724 514.047 51.2695C509.749 53.5666 506.414 56.9382 504.043 61.3842C501.672 65.8302 500.486 71.2396 500.486 77.6122H441.799C441.799 61.6065 445.393 47.8239 452.58 36.2642C459.768 24.7045 469.92 15.8125 483.036 9.58806C496.152 3.36363 511.527 0.251412 529.163 0.251412C547.392 0.251412 563.175 3.17838 576.513 9.03231C589.926 14.8121 600.263 22.9632 607.524 33.4854C614.86 44.0077 618.528 56.3454 618.528 70.4986C618.528 79.2424 616.713 87.9492 613.082 96.619C609.451 105.215 602.93 114.737 593.519 125.185C584.109 135.633 570.734 148.082 553.394 162.531L532.053 180.315V181.649H620.974V231H446.245ZM739.738 234.112C722.25 234.112 706.726 231.037 693.166 224.887C679.68 218.662 669.046 210.104 661.266 199.211C653.559 188.318 649.632 175.795 649.484 161.642H709.505C709.727 169.497 712.765 175.758 718.619 180.426C724.547 185.095 731.587 187.429 739.738 187.429C746.037 187.429 751.594 186.095 756.411 183.428C761.227 180.686 765.006 176.833 767.748 171.868C770.49 166.903 771.823 161.123 771.749 154.528C771.823 147.859 770.49 142.08 767.748 137.189C765.006 132.224 761.227 128.408 756.411 125.74C751.594 122.999 746.037 121.628 739.738 121.628C733.217 121.628 727.178 123.221 721.62 126.407C716.137 129.52 712.099 133.854 709.505 139.412L655.264 128.741L664.156 3.36363H817.099V52.7145H714.84L710.394 102.955H711.728C715.285 96.0632 721.435 90.3575 730.179 85.8373C738.923 81.2431 749.075 78.946 760.634 78.946C774.195 78.946 786.273 82.0953 796.869 88.3938C807.54 94.6923 815.95 103.399 822.101 114.514C828.325 125.555 831.4 138.3 831.326 152.75C831.4 168.607 827.621 182.687 819.989 194.987C812.43 207.214 801.797 216.81 788.088 223.775C774.38 230.667 758.263 234.112 739.738 234.112Z" fill="white" />
</svg>