<svg xmlns="http://www.w3.org/2000/svg" width="752" height="219" fill="none" viewBox="0 0 752 219">
  <mask id="a" width="752" height="219" x="0" y="0" fill="#000" maskUnits="userSpaceOnUse">
    <path fill="#fff" d="M0 0h752v219H0z"/>
    <path d="M667.282 214.763c-15.985 0-30.175-2.811-42.57-8.433-12.327-5.689-22.047-13.512-29.159-23.469-7.044-9.956-10.634-21.403-10.769-34.34h54.863c.203 7.18 2.98 12.903 8.331 17.17 5.419 4.267 11.853 6.401 19.304 6.401 5.757 0 10.837-1.219 15.24-3.658 4.402-2.506 7.856-6.028 10.363-10.566 2.506-4.538 3.725-9.821 3.657-15.849.068-6.096-1.151-11.379-3.657-15.85-2.507-4.538-5.961-8.026-10.363-10.464-4.403-2.506-9.483-3.759-15.24-3.759-5.961 0-11.481 1.456-16.561 4.368-5.012 2.845-8.703 6.807-11.074 11.887l-49.58-9.753 8.128-114.603h139.799v45.11h-93.47l-4.064 45.922h1.219c3.251-6.299 8.873-11.514 16.865-15.646 7.993-4.2 17.272-6.3 27.838-6.3 12.395 0 23.436 2.88 33.121 8.637 9.754 5.757 17.441 13.716 23.063 23.875 5.69 10.092 8.501 21.742 8.433 34.95.068 14.495-3.387 27.364-10.363 38.608-6.909 11.175-16.628 19.947-29.159 26.313-12.53 6.3-27.262 9.449-44.195 9.449Zm-267.99-2.845v-40.639l77.622-64.21c5.147-4.267 9.55-8.264 13.207-11.989 3.726-3.793 6.57-7.688 8.535-11.684 2.032-3.996 3.048-8.432 3.048-13.31 0-5.35-1.152-9.922-3.455-13.715-2.235-3.793-5.351-6.705-9.347-8.737-3.996-2.1-8.602-3.15-13.817-3.15-5.216 0-9.821 1.05-13.818 3.15-3.928 2.1-6.976 5.181-9.143 9.245-2.168 4.064-3.252 9.008-3.252 14.833h-53.644c0-14.63 3.286-27.228 9.856-37.794 6.57-10.566 15.849-18.694 27.837-24.384C444.91 3.844 458.965 1 475.085 1c16.662 0 31.089 2.675 43.281 8.026 12.259 5.283 21.708 12.734 28.346 22.352 6.705 9.618 10.058 20.895 10.058 33.832 0 7.993-1.66 15.951-4.978 23.876-3.319 7.857-9.28 16.56-17.882 26.11-8.602 9.551-20.827 20.93-36.677 34.138l-19.507 16.255v1.219h81.279v45.11H399.292Zm-118.643 5.69c-18.897-.068-35.22-4.437-48.97-13.107-13.75-8.669-24.35-21.166-31.8-37.489-7.451-16.324-11.142-35.898-11.074-58.724.067-22.894 3.793-42.333 11.175-58.318 7.451-15.984 18.017-28.142 31.699-36.473C245.429 5.166 261.752 1 280.649 1c18.898 0 35.221 4.2 48.971 12.598 13.749 8.331 24.35 20.49 31.8 36.474 7.451 15.985 11.142 35.39 11.074 58.216 0 22.961-3.725 42.603-11.176 58.927-7.45 16.323-18.05 28.82-31.8 37.49-13.682 8.602-29.971 12.903-48.869 12.903Zm0-45.923c9.754 0 17.746-5.08 23.978-15.24 6.299-10.227 9.414-26.28 9.347-48.157 0-14.292-1.423-25.975-4.267-35.052-2.845-9.076-6.774-15.781-11.786-20.116-5.012-4.403-10.769-6.604-17.272-6.604-9.753 0-17.712 4.945-23.875 14.833-6.164 9.89-9.313 25.535-9.449 46.939-.068 14.562 1.321 26.551 4.166 35.966 2.844 9.347 6.773 16.255 11.785 20.726 5.08 4.47 10.871 6.705 17.373 6.705ZM5.064 211.918v-40.639l77.621-64.21c5.148-4.267 9.55-8.264 13.208-11.989 3.725-3.793 6.57-7.688 8.534-11.684 2.032-3.996 3.048-8.432 3.048-13.31 0-5.35-1.151-9.922-3.454-13.715-2.235-3.793-5.351-6.705-9.347-8.737-3.997-2.1-8.602-3.15-13.818-3.15-5.215 0-9.82 1.05-13.817 3.15-3.929 2.1-6.977 5.181-9.144 9.245-2.167 4.064-3.251 9.008-3.251 14.833H1c0-14.63 3.285-27.228 9.855-37.794 6.57-10.566 15.85-18.694 27.838-24.384C50.682 3.844 64.736 1 80.856 1c16.662 0 31.089 2.675 43.281 8.026 12.26 5.283 21.708 12.734 28.346 22.352 6.706 9.618 10.058 20.895 10.058 33.832 0 7.993-1.659 15.951-4.978 23.876-3.319 7.857-9.279 16.56-17.881 26.11-8.602 9.551-20.828 20.93-36.677 34.138l-19.507 16.255v1.219h81.278v45.11H5.064Z"/>
  </mask>
  <path fill="#fff" d="M667.282 214.763c-15.985 0-30.175-2.811-42.57-8.433-12.327-5.689-22.047-13.512-29.159-23.469-7.044-9.956-10.634-21.403-10.769-34.34h54.863c.203 7.18 2.98 12.903 8.331 17.17 5.419 4.267 11.853 6.401 19.304 6.401 5.757 0 10.837-1.219 15.24-3.658 4.402-2.506 7.856-6.028 10.363-10.566 2.506-4.538 3.725-9.821 3.657-15.849.068-6.096-1.151-11.379-3.657-15.85-2.507-4.538-5.961-8.026-10.363-10.464-4.403-2.506-9.483-3.759-15.24-3.759-5.961 0-11.481 1.456-16.561 4.368-5.012 2.845-8.703 6.807-11.074 11.887l-49.58-9.753 8.128-114.603h139.799v45.11h-93.47l-4.064 45.922h1.219c3.251-6.299 8.873-11.514 16.865-15.646 7.993-4.2 17.272-6.3 27.838-6.3 12.395 0 23.436 2.88 33.121 8.637 9.754 5.757 17.441 13.716 23.063 23.875 5.69 10.092 8.501 21.742 8.433 34.95.068 14.495-3.387 27.364-10.363 38.608-6.909 11.175-16.628 19.947-29.159 26.313-12.53 6.3-27.262 9.449-44.195 9.449Zm-267.99-2.845v-40.639l77.622-64.21c5.147-4.267 9.55-8.264 13.207-11.989 3.726-3.793 6.57-7.688 8.535-11.684 2.032-3.996 3.048-8.432 3.048-13.31 0-5.35-1.152-9.922-3.455-13.715-2.235-3.793-5.351-6.705-9.347-8.737-3.996-2.1-8.602-3.15-13.817-3.15-5.216 0-9.821 1.05-13.818 3.15-3.928 2.1-6.976 5.181-9.143 9.245-2.168 4.064-3.252 9.008-3.252 14.833h-53.644c0-14.63 3.286-27.228 9.856-37.794 6.57-10.566 15.849-18.694 27.837-24.384C444.91 3.844 458.965 1 475.085 1c16.662 0 31.089 2.675 43.281 8.026 12.259 5.283 21.708 12.734 28.346 22.352 6.705 9.618 10.058 20.895 10.058 33.832 0 7.993-1.66 15.951-4.978 23.876-3.319 7.857-9.28 16.56-17.882 26.11-8.602 9.551-20.827 20.93-36.677 34.138l-19.507 16.255v1.219h81.279v45.11H399.292Zm-118.643 5.69c-18.897-.068-35.22-4.437-48.97-13.107-13.75-8.669-24.35-21.166-31.8-37.489-7.451-16.324-11.142-35.898-11.074-58.724.067-22.894 3.793-42.333 11.175-58.318 7.451-15.984 18.017-28.142 31.699-36.473C245.429 5.166 261.752 1 280.649 1c18.898 0 35.221 4.2 48.971 12.598 13.749 8.331 24.35 20.49 31.8 36.474 7.451 15.985 11.142 35.39 11.074 58.216 0 22.961-3.725 42.603-11.176 58.927-7.45 16.323-18.05 28.82-31.8 37.49-13.682 8.602-29.971 12.903-48.869 12.903Zm0-45.923c9.754 0 17.746-5.08 23.978-15.24 6.299-10.227 9.414-26.28 9.347-48.157 0-14.292-1.423-25.975-4.267-35.052-2.845-9.076-6.774-15.781-11.786-20.116-5.012-4.403-10.769-6.604-17.272-6.604-9.753 0-17.712 4.945-23.875 14.833-6.164 9.89-9.313 25.535-9.449 46.939-.068 14.562 1.321 26.551 4.166 35.966 2.844 9.347 6.773 16.255 11.785 20.726 5.08 4.47 10.871 6.705 17.373 6.705ZM5.064 211.918v-40.639l77.621-64.21c5.148-4.267 9.55-8.264 13.208-11.989 3.725-3.793 6.57-7.688 8.534-11.684 2.032-3.996 3.048-8.432 3.048-13.31 0-5.35-1.151-9.922-3.454-13.715-2.235-3.793-5.351-6.705-9.347-8.737-3.997-2.1-8.602-3.15-13.818-3.15-5.215 0-9.82 1.05-13.817 3.15-3.929 2.1-6.977 5.181-9.144 9.245-2.167 4.064-3.251 9.008-3.251 14.833H1c0-14.63 3.285-27.228 9.855-37.794 6.57-10.566 15.85-18.694 27.838-24.384C50.682 3.844 64.736 1 80.856 1c16.662 0 31.089 2.675 43.281 8.026 12.26 5.283 21.708 12.734 28.346 22.352 6.706 9.618 10.058 20.895 10.058 33.832 0 7.993-1.659 15.951-4.978 23.876-3.319 7.857-9.279 16.56-17.881 26.11-8.602 9.551-20.828 20.93-36.677 34.138l-19.507 16.255v1.219h81.278v45.11H5.064Z"/>
  <path stroke="#fff" stroke-width="2" d="M667.282 214.763c-15.985 0-30.175-2.811-42.57-8.433-12.327-5.689-22.047-13.512-29.159-23.469-7.044-9.956-10.634-21.403-10.769-34.34h54.863c.203 7.18 2.98 12.903 8.331 17.17 5.419 4.267 11.853 6.401 19.304 6.401 5.757 0 10.837-1.219 15.24-3.658 4.402-2.506 7.856-6.028 10.363-10.566 2.506-4.538 3.725-9.821 3.657-15.849.068-6.096-1.151-11.379-3.657-15.85-2.507-4.538-5.961-8.026-10.363-10.464-4.403-2.506-9.483-3.759-15.24-3.759-5.961 0-11.481 1.456-16.561 4.368-5.012 2.845-8.703 6.807-11.074 11.887l-49.58-9.753 8.128-114.603h139.799v45.11h-93.47l-4.064 45.922h1.219c3.251-6.299 8.873-11.514 16.865-15.646 7.993-4.2 17.272-6.3 27.838-6.3 12.395 0 23.436 2.88 33.121 8.637 9.754 5.757 17.441 13.716 23.063 23.875 5.69 10.092 8.501 21.742 8.433 34.95.068 14.495-3.387 27.364-10.363 38.608-6.909 11.175-16.628 19.947-29.159 26.313-12.53 6.3-27.262 9.449-44.195 9.449Zm-267.99-2.845v-40.639l77.622-64.21c5.147-4.267 9.55-8.264 13.207-11.989 3.726-3.793 6.57-7.688 8.535-11.684 2.032-3.996 3.048-8.432 3.048-13.31 0-5.35-1.152-9.922-3.455-13.715-2.235-3.793-5.351-6.705-9.347-8.737-3.996-2.1-8.602-3.15-13.817-3.15-5.216 0-9.821 1.05-13.818 3.15-3.928 2.1-6.976 5.181-9.143 9.245-2.168 4.064-3.252 9.008-3.252 14.833h-53.644c0-14.63 3.286-27.228 9.856-37.794 6.57-10.566 15.849-18.694 27.837-24.384C444.91 3.844 458.965 1 475.085 1c16.662 0 31.089 2.675 43.281 8.026 12.259 5.283 21.708 12.734 28.346 22.352 6.705 9.618 10.058 20.895 10.058 33.832 0 7.993-1.66 15.951-4.978 23.876-3.319 7.857-9.28 16.56-17.882 26.11-8.602 9.551-20.827 20.93-36.677 34.138l-19.507 16.255v1.219h81.279v45.11H399.292Zm-118.643 5.69c-18.897-.068-35.22-4.437-48.97-13.107-13.75-8.669-24.35-21.166-31.8-37.489-7.451-16.324-11.142-35.898-11.074-58.724.067-22.894 3.793-42.333 11.175-58.318 7.451-15.984 18.017-28.142 31.699-36.473C245.429 5.166 261.752 1 280.649 1c18.898 0 35.221 4.2 48.971 12.598 13.749 8.331 24.35 20.49 31.8 36.474 7.451 15.985 11.142 35.39 11.074 58.216 0 22.961-3.725 42.603-11.176 58.927-7.45 16.323-18.05 28.82-31.8 37.49-13.682 8.602-29.971 12.903-48.869 12.903Zm0-45.923c9.754 0 17.746-5.08 23.978-15.24 6.299-10.227 9.414-26.28 9.347-48.157 0-14.292-1.423-25.975-4.267-35.052-2.845-9.076-6.774-15.781-11.786-20.116-5.012-4.403-10.769-6.604-17.272-6.604-9.753 0-17.712 4.945-23.875 14.833-6.164 9.89-9.313 25.535-9.449 46.939-.068 14.562 1.321 26.551 4.166 35.966 2.844 9.347 6.773 16.255 11.785 20.726 5.08 4.47 10.871 6.705 17.373 6.705ZM5.064 211.918v-40.639l77.621-64.21c5.148-4.267 9.55-8.264 13.208-11.989 3.725-3.793 6.57-7.688 8.534-11.684 2.032-3.996 3.048-8.432 3.048-13.31 0-5.35-1.151-9.922-3.454-13.715-2.235-3.793-5.351-6.705-9.347-8.737-3.997-2.1-8.602-3.15-13.818-3.15-5.215 0-9.82 1.05-13.817 3.15-3.929 2.1-6.977 5.181-9.144 9.245-2.167 4.064-3.251 9.008-3.251 14.833H1c0-14.63 3.285-27.228 9.855-37.794 6.57-10.566 15.85-18.694 27.838-24.384C50.682 3.844 64.736 1 80.856 1c16.662 0 31.089 2.675 43.281 8.026 12.26 5.283 21.708 12.734 28.346 22.352 6.706 9.618 10.058 20.895 10.058 33.832 0 7.993-1.659 15.951-4.978 23.876-3.319 7.857-9.279 16.56-17.881 26.11-8.602 9.551-20.828 20.93-36.677 34.138l-19.507 16.255v1.219h81.278v45.11H5.064Z" mask="url(#a)"/>
</svg>
