<svg xmlns="http://www.w3.org/2000/svg" width="271" height="337" fill="none" viewBox="0 0 271 337">
  <path fill="#fff" d="M198.028 337c-11.635 0-21.964-2.046-30.986-6.138-8.973-4.141-16.048-9.836-21.225-17.083-5.127-7.248-7.74-15.58-7.839-24.997h39.935c.148 5.226 2.169 9.392 6.064 12.499 3.944 3.106 8.628 4.659 14.051 4.659 4.191 0 7.889-.888 11.093-2.663 3.205-1.824 5.72-4.388 7.544-7.691 1.824-3.303 2.711-7.149 2.662-11.537.049-4.437-.838-8.282-2.662-11.536-1.824-3.304-4.339-5.843-7.544-7.618-3.204-1.824-6.902-2.736-11.093-2.736-4.338 0-8.356 1.06-12.054 3.18-3.648 2.071-6.335 4.955-8.061 8.653l-36.089-7.1 5.916-83.42H249.5v32.836h-68.037l-2.958 33.427h.887c2.367-4.585 6.459-8.382 12.276-11.389 5.818-3.057 12.573-4.585 20.264-4.585 9.022 0 17.058 2.095 24.109 6.286 7.099 4.191 12.695 9.984 16.787 17.379 4.142 7.346 6.188 15.826 6.138 25.44.05 10.551-2.465 19.918-7.543 28.102-5.029 8.135-12.104 14.52-21.225 19.154-9.121 4.586-19.844 6.878-32.17 6.878Zm-195.07-2.071v-29.581l56.5-46.739c3.748-3.106 6.952-6.015 9.615-8.727 2.711-2.76 4.782-5.595 6.212-8.504 1.479-2.909 2.219-6.138 2.219-9.688 0-3.895-.839-7.223-2.515-9.984-1.627-2.761-3.895-4.881-6.804-6.36-2.909-1.528-6.261-2.292-10.057-2.292-3.797 0-7.15.764-10.058 2.292-2.86 1.528-5.078 3.772-6.656 6.73-1.578 2.958-2.366 6.557-2.366 10.797H0c0-10.649 2.391-19.819 7.174-27.511 4.782-7.691 11.536-13.607 20.263-17.749 8.726-4.141 18.957-6.212 30.69-6.212 12.129 0 22.63 1.948 31.505 5.843 8.924 3.845 15.801 9.269 20.633 16.27 4.881 7 7.321 15.209 7.321 24.626 0 5.818-1.208 11.611-3.623 17.379-2.416 5.719-6.755 12.055-13.016 19.006-6.262 6.952-15.16 15.235-26.698 24.849L60.05 301.206v.888h59.163v32.835H2.958Zm200.6-177.26c-13.756-.049-25.638-3.229-35.646-9.54-10.008-6.31-17.724-15.407-23.148-27.289-5.423-11.882-8.11-26.13-8.061-42.745.05-16.664 2.761-30.814 8.135-42.45 5.424-11.635 13.115-20.485 23.074-26.549C177.92 3.032 189.802 0 203.558 0c13.755 0 25.637 3.057 35.645 9.17 10.009 6.065 17.725 14.914 23.148 26.55 5.423 11.635 8.11 25.76 8.061 42.375 0 16.714-2.712 31.011-8.135 42.893-5.423 11.882-13.139 20.978-23.148 27.289-9.959 6.262-21.816 9.392-35.571 9.392Zm0-33.427c7.099 0 12.917-3.697 17.453-11.093 4.585-7.445 6.853-19.13 6.803-35.054 0-10.403-1.035-18.907-3.106-25.514-2.07-6.607-4.93-11.487-8.578-14.643-3.649-3.204-7.839-4.807-12.572-4.807-7.1 0-12.893 3.6-17.379 10.797-4.487 7.199-6.78 18.588-6.878 34.167-.049 10.6.961 19.327 3.032 26.18 2.071 6.803 4.93 11.832 8.579 15.086 3.697 3.254 7.913 4.881 12.646 4.881Zm-200.6 29.286v-29.582l56.5-46.738c3.748-3.106 6.952-6.015 9.615-8.727 2.711-2.76 4.782-5.596 6.212-8.504 1.479-2.91 2.219-6.139 2.219-9.688 0-3.895-.839-7.223-2.515-9.984-1.627-2.761-3.895-4.881-6.804-6.36-2.909-1.529-6.261-2.293-10.057-2.293-3.797 0-7.15.764-10.058 2.293-2.86 1.528-5.078 3.771-6.656 6.73-1.578 2.958-2.366 6.557-2.366 10.797H0c0-10.65 2.391-19.82 7.174-27.511C11.956 16.27 18.71 10.354 27.437 6.212 36.163 2.071 46.394 0 58.127 0c12.129 0 22.63 1.947 31.505 5.842 8.924 3.846 15.801 9.27 20.633 16.27 4.881 7.001 7.321 15.21 7.321 24.627 0 5.817-1.207 11.61-3.623 17.379-2.416 5.719-6.755 12.054-13.016 19.006-6.262 6.952-15.16 15.234-26.698 24.848L60.05 119.805v.887h59.163v32.836H2.958Z"/>
</svg>
