<svg xmlns="http://www.w3.org/2000/svg" width="197" height="121" fill="none" viewBox="0 0 197 121"><g class="BatWrapper" style="transform-origin:center;transform-box:fill-box"><g class="Bat"><path fill="#fff" d="m160.117 24.755-.083-.084c-6.085-2.856-17.671 17.51-27.964 37.624-4.376 8.525-8.627 12.598-12.42 15.243 0-6.256-.958-10.624-2.75-10.918-2.417-.336-5.543 6.719-7.418 16.461-4.71.504-11.92 4.242-15.67-5.585-5.335-13.899-12.045-27-19.755-18.644 0 0-1.041 1.386-1.25 2.016C57.43 57.172 18.046 45.876 0 61.708c0 0 22.713 4.45 17.295 22.633 0 0 41.551 0 36.842 30.528 0 0 22.754-16.083 21.88 6.131 0 0 21.087-23.306 30.297-21.92.292 1.974.667 3.318.667 3.318.292-.504.625-.924.959-1.386.208 4.871 1.167 8.188 2.709 8.398 2.375.336 5.417-6.466 7.293-15.873 9.793-2.813 20.587 2.604 20.587 2.604 5.918-24.23 19.963-24.188 19.963-24.188 4.209-30.36 23.546-48.878 23.546-48.878C181.58 7.244 197 .189 197 .189c-13.044-2.141-28.298 14.403-36.841 24.523zM79.142 61.791c-.25.461-2.334.083-5.751-.715.125-.084.25-.125.458-.252 2.542-1.68 7.752-3.569 5.293.966Zm74.265-29.563c-1.125-2.52 2.334-4.535 4.877-5.249-2.876 3.443-4.668 5.71-4.877 5.249" class="bat"/></g><animateTransform attributeName="transform" attributeType="XML" dur="2s" repeatCount="indefinite" type="scale" values="0.9; 1; 0.9"/></g></svg>