<svg width="1461" height="770" viewBox="0 0 1461 770" fill="none" xmlns="http://www.w3.org/2000/svg">
<g clip-path="url(#clip0_141_147)">
<path d="M116.858 0L-0.000488281 130.9V770H1350.22L1460.28 635.024V0H116.858Z" fill="#D9D9D9"/>
<path d="M1005.26 440.54L1005.26 440.542C1019.05 446.793 1034.81 449.912 1052.55 449.912C1071.34 449.912 1087.71 446.417 1101.65 439.409L1101.66 439.408C1115.59 432.329 1126.41 422.567 1134.1 410.124C1141.87 397.603 1145.71 383.277 1145.64 367.163C1145.71 352.483 1142.59 339.512 1136.25 328.266C1129.99 316.955 1121.43 308.088 1110.56 301.674C1099.76 295.256 1087.46 292.053 1073.68 292.053C1061.92 292.053 1051.58 294.389 1042.66 299.077C1033.86 303.622 1027.61 309.365 1023.93 316.324L1023.43 316.324L1027.84 266.535L1130.76 266.535L1131.26 266.535L1131.26 266.035L1131.26 216.146L1131.26 215.646L1130.76 215.646L976.144 215.646L975.678 215.646L975.645 216.111L966.656 342.857L966.625 343.297L967.059 343.383L1021.89 354.169L1022.28 354.245L1022.44 353.89C1025.02 348.369 1029.03 344.064 1034.48 340.967L1034.48 340.966C1040.03 337.789 1046.04 336.201 1052.55 336.201C1058.84 336.201 1064.37 337.57 1069.16 340.293L1069.16 340.296C1073.95 342.945 1077.7 346.734 1080.43 351.673L1080.43 351.676C1083.15 356.53 1084.49 362.284 1084.41 368.955L1084.41 368.966C1084.49 375.561 1083.15 381.316 1080.43 386.247C1077.7 391.186 1073.95 395.014 1069.16 397.739C1064.38 400.388 1058.85 401.72 1052.55 401.72C1044.41 401.72 1037.41 399.392 1031.51 394.749C1025.72 390.127 1022.71 383.938 1022.49 376.137L1022.47 375.651L1021.99 375.651L961.312 375.651L960.807 375.651L960.812 376.157C960.963 390.559 964.962 403.319 972.815 414.419L972.816 414.421C980.737 425.511 991.558 434.216 1005.26 440.54Z" fill="black" stroke="black"/>
<path d="M755.355 446.766L755.355 446.266L755.355 401.321L755.355 401.086L755.537 400.936L841.382 329.922L755.355 446.766ZM755.355 446.766L755.855 446.766M755.355 446.766L755.855 446.766M755.855 446.766L932.491 446.766L932.991 446.766L932.991 446.266L932.991 396.377L932.991 395.877L932.491 395.877L843.1 395.877M755.855 446.766L843.1 395.877M843.1 395.877L843.1 395.263L864.494 377.435C882.031 362.82 895.572 350.218 905.108 339.631C914.642 329.046 921.273 319.373 924.973 310.614L924.974 310.612C928.668 301.791 930.519 292.924 930.519 284.014C930.519 269.615 926.785 257.04 919.305 246.311C911.903 235.587 901.375 227.292 887.744 221.418C874.184 215.467 858.157 212.5 839.678 212.5C821.792 212.5 806.172 215.657 792.833 221.987C779.494 228.317 769.156 237.369 761.835 249.142C754.512 260.92 750.861 274.948 750.861 291.205L750.861 291.705L751.361 291.705L810.689 291.705L811.189 291.705L811.189 291.205C811.189 284.824 812.376 279.441 814.726 275.035C817.077 270.625 820.378 267.29 824.631 265.016C828.969 262.738 833.98 261.592 839.678 261.592C845.378 261.592 850.39 262.738 854.727 265.017L854.733 265.021C859.07 267.225 862.444 270.381 864.867 274.492L864.87 274.498C867.36 278.6 868.618 283.562 868.618 289.407C868.618 294.729 867.51 299.557 865.301 303.9L865.298 303.906C863.153 308.27 860.041 312.534 855.952 316.698L855.951 316.698C851.921 320.803 847.066 325.211 841.382 329.922L843.1 395.877Z" fill="black" stroke="black"/>
<path d="M624.951 453.059L624.952 453.059L726.529 331.656L727.029 331.657C727.029 331.657 727.029 331.656 727.029 331.656C727.104 306.359 723.013 284.822 714.734 267.06C706.457 249.301 694.67 235.776 679.371 226.505C664.073 217.162 645.927 212.5 624.952 212.5C603.978 212.5 585.831 217.124 570.534 226.393L570.533 226.394C555.309 235.664 543.56 249.189 535.283 266.948L535.282 266.95C527.079 284.71 522.951 306.284 522.876 331.654C522.801 356.952 526.892 378.675 535.169 396.809C543.445 414.941 555.229 428.841 570.526 438.487C585.824 448.133 603.973 452.984 624.951 453.059ZM651.044 384.654L651.044 384.655C644.22 395.781 635.525 401.271 624.952 401.271C617.888 401.271 611.6 398.847 606.07 393.98C600.62 389.119 596.313 381.573 593.182 371.287C590.056 360.939 588.522 347.735 588.597 331.659C588.747 308.014 592.229 290.825 598.971 280.008C605.717 269.185 614.374 263.839 624.952 263.839C632.019 263.839 638.269 266.227 643.724 271.018L643.727 271.021C649.176 275.733 653.481 283.054 656.611 293.04C659.737 303.012 661.307 315.878 661.307 331.656L661.307 331.657C661.382 355.825 657.936 373.464 651.044 384.654Z" fill="black" stroke="black"/>
<path d="M319.666 446.266L319.666 446.766L320.166 446.766L496.802 446.766L497.302 446.766L497.302 446.266L497.302 396.377L497.302 395.877L496.802 395.877L407.411 395.877L407.411 395.263L428.805 377.435C446.342 362.82 459.884 350.218 469.419 339.631C478.953 329.046 485.584 319.373 489.285 310.614L489.285 310.612C492.979 301.791 494.83 292.924 494.83 284.014C494.83 269.615 491.096 257.04 483.616 246.311C476.215 235.587 465.687 227.293 452.056 221.418C438.495 215.467 422.469 212.5 403.99 212.5C386.103 212.5 370.483 215.657 357.144 221.987C343.805 228.317 333.467 237.369 326.147 249.142C318.823 260.92 315.172 274.948 315.172 291.205L315.172 291.705L315.672 291.705L375 291.705L375.5 291.705L375.5 291.205C375.5 284.824 376.687 279.441 379.037 275.035C381.388 270.625 384.689 267.291 388.942 265.017C393.279 262.738 398.291 261.592 403.99 261.592C409.689 261.592 414.701 262.738 419.038 265.017L419.044 265.021C423.381 267.225 426.755 270.381 429.178 274.492L429.181 274.498C431.671 278.6 432.929 283.562 432.929 289.407C432.929 294.729 431.821 299.557 429.612 303.9L429.609 303.906C427.464 308.27 424.352 312.534 420.263 316.698L420.263 316.698C416.232 320.803 411.376 325.211 405.693 329.922L319.848 400.936L319.666 401.086L319.666 401.321L319.666 446.266Z" fill="black" stroke="black"/>
</g>
<defs>
<clipPath id="clip0_141_147">
<rect width="1460.28" height="770" fill="white"/>
</clipPath>
</defs>
</svg>
