<svg xmlns="http://www.w3.org/2000/svg" width="2500" height="2010" viewBox="0 0 2500 2010" fill="none">
    <g filter="url(#filter0_d_33_2)">
        <path d="M2391 854.015V132.669C2391 104.188 2361.8 81 2325.55 81H784.588C767.263 81 750.579 86.5449 738.388 96.1226L469.411 319.5L81 639L81 1866.72C81 1885.88 100.571 1901 124.633 1901H1714.36L2371.75 1383.05C2383.94 1373.47 2391 1360.37 2391 1346.76V854.015Z" fill="#FFFEFD" />
        <path d="M2370.82 1381.87L2370.82 1381.87L1713.84 1899.5H124.633C101.034 1899.5 82.5 1884.73 82.5 1866.72L82.5 639.708L470.364 320.658L470.37 320.654L739.314 97.3021C739.319 97.298 739.325 97.2938 739.33 97.2897C751.231 87.947 767.573 82.5 784.588 82.5H2325.55C2361.32 82.5 2389.5 105.325 2389.5 132.669V854.015V1346.76C2389.5 1359.83 2382.72 1372.53 2370.82 1381.87Z" stroke="url(#paint0_linear_33_2)" stroke-width="3" />
    </g>
    <defs>
        <filter id="filter0_d_33_2" x="0" y="0" width="2500" height="2010" filterUnits="userSpaceOnUse" color-interpolation-filters="sRGB">
            <feFlood flood-opacity="0" result="BackgroundImageFix" />
            <feColorMatrix in="SourceAlpha" type="matrix" values="0 0 0 0 0 0 0 0 0 0 0 0 0 0 0 0 0 0 127 0" result="hardAlpha" />
            <feOffset dx="14" dy="14" />
            <feGaussianBlur stdDeviation="47.5" />
            <feComposite in2="hardAlpha" operator="out" />
            <feColorMatrix type="matrix" values="0 0 0 0 0.750534 0 0 0 0 0.576388 0 0 0 0 0.0463815 0 0 0 0.2 0" />
            <feBlend mode="normal" in2="BackgroundImageFix" result="effect1_dropShadow_33_2" />
            <feBlend mode="normal" in="SourceGraphic" in2="effect1_dropShadow_33_2" result="shape" />
        </filter>
        <linearGradient id="paint0_linear_33_2" x1="1759.72" y1="1326.74" x2="-443.57" y2="1332.4" gradientUnits="userSpaceOnUse">
            <stop stop-color="#D7BD64" />
            <stop offset="0.5" stop-color="#F3E1A7" />
            <stop offset="1" stop-color="#D9BD64" />
        </linearGradient>
    </defs>
</svg>