<svg xmlns="http://www.w3.org/2000/svg" width="832" height="242" fill="none" viewBox="0 0 832 242">
  <mask id="a" width="832" height="242" x="0" y="0" fill="#000" maskUnits="userSpaceOnUse">
    <path fill="#fff" d="M0 0h832v242H0z"/>
    <path d="M737.879 237.413c-17.678 0-33.372-3.109-47.08-9.327-13.633-6.292-24.383-14.944-32.248-25.956-7.791-11.011-11.761-23.671-11.911-37.978h60.677c.224 7.94 3.296 14.27 9.213 18.989 5.993 4.719 13.109 7.079 21.349 7.079 6.368 0 11.986-1.348 16.855-4.045 4.869-2.772 8.689-6.667 11.461-11.686 2.772-5.019 4.12-10.862 4.045-17.529.075-6.741-1.273-12.584-4.045-17.528-2.772-5.019-6.592-8.877-11.461-11.574-4.869-2.771-10.487-4.157-16.855-4.157-6.592 0-12.697 1.61-18.315 4.831-5.543 3.147-9.626 7.529-12.247 13.147l-54.834-10.787 8.989-126.746h154.612v49.89H712.71l-4.495 50.788h1.349c3.595-6.967 9.813-12.735 18.652-17.304 8.839-4.645 19.102-6.967 30.788-6.967 13.708 0 25.918 3.184 36.63 9.551 10.787 6.367 19.289 15.169 25.507 26.406 6.292 11.161 9.401 24.045 9.326 38.653.075 16.03-3.746 30.263-11.461 42.698-7.641 12.36-18.39 22.06-32.248 29.102-13.859 6.966-30.151 10.45-48.879 10.45Zm-296.384-3.147v-44.945l85.845-71.014c5.693-4.719 10.562-9.138 14.607-13.258 4.12-4.195 7.267-8.503 9.439-12.922 2.247-4.42 3.371-9.326 3.371-14.72 0-5.918-1.274-10.974-3.82-15.169-2.472-4.195-5.918-7.416-10.338-9.663-4.42-2.322-9.513-3.483-15.281-3.483-5.768 0-10.862 1.16-15.282 3.483-4.344 2.322-7.715 5.73-10.112 10.225-2.398 4.494-3.596 9.963-3.596 16.405H437c0-16.18 3.633-30.113 10.899-41.8 7.266-11.685 17.529-20.674 30.788-26.967C491.946 4.146 507.489 1 525.318 1c18.427 0 34.383 2.959 47.867 8.877 13.558 5.843 24.008 14.083 31.349 24.72 7.416 10.637 11.124 23.11 11.124 37.417 0 8.839-1.835 17.64-5.506 26.405-3.67 8.69-10.262 18.315-19.776 28.877-9.513 10.563-23.034 23.147-40.563 37.755l-21.574 17.978v1.348h89.891v49.889H441.495Zm-131.215 6.293c-20.899-.075-38.952-4.907-54.159-14.495-15.206-9.588-26.929-23.409-35.169-41.462-8.24-18.053-12.323-39.702-12.248-64.946.075-25.32 4.195-46.818 12.36-64.497 8.24-17.678 19.926-31.124 35.057-40.338C271.328 5.607 289.381 1 310.28 1c20.9 0 38.953 4.644 54.16 13.933 15.206 9.214 26.929 22.66 35.169 40.339 8.24 17.678 12.323 39.14 12.248 64.384 0 25.394-4.12 47.117-12.36 65.171-8.24 18.053-19.963 31.873-35.17 41.462-15.131 9.513-33.147 14.27-54.047 14.27Zm0-50.788c10.787 0 19.627-5.619 26.518-16.855 6.967-11.311 10.413-29.065 10.338-53.26 0-15.806-1.573-28.728-4.72-38.766-3.146-10.037-7.491-17.453-13.034-22.248-5.543-4.869-11.91-7.303-19.102-7.303-10.786 0-19.588 5.468-26.405 16.405-6.817 10.937-10.3 28.24-10.45 51.912-.075 16.105 1.461 29.364 4.607 39.776 3.146 10.338 7.491 17.979 13.034 22.923 5.618 4.944 12.023 7.416 19.214 7.416ZM5.495 234.266v-44.945l85.845-71.014c5.693-4.719 10.562-9.138 14.607-13.258 4.12-4.195 7.267-8.503 9.439-12.922 2.247-4.42 3.371-9.326 3.371-14.72 0-5.918-1.274-10.974-3.82-15.169-2.472-4.195-5.918-7.416-10.338-9.663-4.42-2.322-9.513-3.483-15.281-3.483-5.768 0-10.862 1.16-15.282 3.483-4.344 2.322-7.715 5.73-10.113 10.225-2.397 4.494-3.595 9.963-3.595 16.405H1c0-16.18 3.633-30.113 10.9-41.8 7.265-11.685 17.528-20.674 30.787-26.967C55.946 4.146 71.489 1 89.317 1c18.428 0 34.384 2.959 47.867 8.877 13.559 5.843 24.009 14.083 31.35 24.72 7.416 10.637 11.124 23.11 11.124 37.417 0 8.839-1.835 17.64-5.506 26.405-3.67 8.69-10.262 18.315-19.776 28.877-9.513 10.563-23.034 23.147-40.563 37.755l-21.574 17.978v1.348h89.891v49.889H5.495Z"/>
  </mask>
  <path fill="#fff" d="M737.879 237.413c-17.678 0-33.372-3.109-47.08-9.327-13.633-6.292-24.383-14.944-32.248-25.956-7.791-11.011-11.761-23.671-11.911-37.978h60.677c.224 7.94 3.296 14.27 9.213 18.989 5.993 4.719 13.109 7.079 21.349 7.079 6.368 0 11.986-1.348 16.855-4.045 4.869-2.772 8.689-6.667 11.461-11.686 2.772-5.019 4.12-10.862 4.045-17.529.075-6.741-1.273-12.584-4.045-17.528-2.772-5.019-6.592-8.877-11.461-11.574-4.869-2.771-10.487-4.157-16.855-4.157-6.592 0-12.697 1.61-18.315 4.831-5.543 3.147-9.626 7.529-12.247 13.147l-54.834-10.787 8.989-126.746h154.612v49.89H712.71l-4.495 50.788h1.349c3.595-6.967 9.813-12.735 18.652-17.304 8.839-4.645 19.102-6.967 30.788-6.967 13.708 0 25.918 3.184 36.63 9.551 10.787 6.367 19.289 15.169 25.507 26.406 6.292 11.161 9.401 24.045 9.326 38.653.075 16.03-3.746 30.263-11.461 42.698-7.641 12.36-18.39 22.06-32.248 29.102-13.859 6.966-30.151 10.45-48.879 10.45Zm-296.384-3.147v-44.945l85.845-71.014c5.693-4.719 10.562-9.138 14.607-13.258 4.12-4.195 7.267-8.503 9.439-12.922 2.247-4.42 3.371-9.326 3.371-14.72 0-5.918-1.274-10.974-3.82-15.169-2.472-4.195-5.918-7.416-10.338-9.663-4.42-2.322-9.513-3.483-15.281-3.483-5.768 0-10.862 1.16-15.282 3.483-4.344 2.322-7.715 5.73-10.112 10.225-2.398 4.494-3.596 9.963-3.596 16.405H437c0-16.18 3.633-30.113 10.899-41.8 7.266-11.685 17.529-20.674 30.788-26.967C491.946 4.146 507.489 1 525.318 1c18.427 0 34.383 2.959 47.867 8.877 13.558 5.843 24.008 14.083 31.349 24.72 7.416 10.637 11.124 23.11 11.124 37.417 0 8.839-1.835 17.64-5.506 26.405-3.67 8.69-10.262 18.315-19.776 28.877-9.513 10.563-23.034 23.147-40.563 37.755l-21.574 17.978v1.348h89.891v49.889H441.495Zm-131.215 6.293c-20.899-.075-38.952-4.907-54.159-14.495-15.206-9.588-26.929-23.409-35.169-41.462-8.24-18.053-12.323-39.702-12.248-64.946.075-25.32 4.195-46.818 12.36-64.497 8.24-17.678 19.926-31.124 35.057-40.338C271.328 5.607 289.381 1 310.28 1c20.9 0 38.953 4.644 54.16 13.933 15.206 9.214 26.929 22.66 35.169 40.339 8.24 17.678 12.323 39.14 12.248 64.384 0 25.394-4.12 47.117-12.36 65.171-8.24 18.053-19.963 31.873-35.17 41.462-15.131 9.513-33.147 14.27-54.047 14.27Zm0-50.788c10.787 0 19.627-5.619 26.518-16.855 6.967-11.311 10.413-29.065 10.338-53.26 0-15.806-1.573-28.728-4.72-38.766-3.146-10.037-7.491-17.453-13.034-22.248-5.543-4.869-11.91-7.303-19.102-7.303-10.786 0-19.588 5.468-26.405 16.405-6.817 10.937-10.3 28.24-10.45 51.912-.075 16.105 1.461 29.364 4.607 39.776 3.146 10.338 7.491 17.979 13.034 22.923 5.618 4.944 12.023 7.416 19.214 7.416ZM5.495 234.266v-44.945l85.845-71.014c5.693-4.719 10.562-9.138 14.607-13.258 4.12-4.195 7.267-8.503 9.439-12.922 2.247-4.42 3.371-9.326 3.371-14.72 0-5.918-1.274-10.974-3.82-15.169-2.472-4.195-5.918-7.416-10.338-9.663-4.42-2.322-9.513-3.483-15.281-3.483-5.768 0-10.862 1.16-15.282 3.483-4.344 2.322-7.715 5.73-10.113 10.225-2.397 4.494-3.595 9.963-3.595 16.405H1c0-16.18 3.633-30.113 10.9-41.8 7.265-11.685 17.528-20.674 30.787-26.967C55.946 4.146 71.489 1 89.317 1c18.428 0 34.384 2.959 47.867 8.877 13.559 5.843 24.009 14.083 31.35 24.72 7.416 10.637 11.124 23.11 11.124 37.417 0 8.839-1.835 17.64-5.506 26.405-3.67 8.69-10.262 18.315-19.776 28.877-9.513 10.563-23.034 23.147-40.563 37.755l-21.574 17.978v1.348h89.891v49.889H5.495Z"/>
  <path stroke="#fff" stroke-width="2" d="M737.879 237.413c-17.678 0-33.372-3.109-47.08-9.327-13.633-6.292-24.383-14.944-32.248-25.956-7.791-11.011-11.761-23.671-11.911-37.978h60.677c.224 7.94 3.296 14.27 9.213 18.989 5.993 4.719 13.109 7.079 21.349 7.079 6.368 0 11.986-1.348 16.855-4.045 4.869-2.772 8.689-6.667 11.461-11.686 2.772-5.019 4.12-10.862 4.045-17.529.075-6.741-1.273-12.584-4.045-17.528-2.772-5.019-6.592-8.877-11.461-11.574-4.869-2.771-10.487-4.157-16.855-4.157-6.592 0-12.697 1.61-18.315 4.831-5.543 3.147-9.626 7.529-12.247 13.147l-54.834-10.787 8.989-126.746h154.612v49.89H712.71l-4.495 50.788h1.349c3.595-6.967 9.813-12.735 18.652-17.304 8.839-4.645 19.102-6.967 30.788-6.967 13.708 0 25.918 3.184 36.63 9.551 10.787 6.367 19.289 15.169 25.507 26.406 6.292 11.161 9.401 24.045 9.326 38.653.075 16.03-3.746 30.263-11.461 42.698-7.641 12.36-18.39 22.06-32.248 29.102-13.859 6.966-30.151 10.45-48.879 10.45Zm-296.384-3.147v-44.945l85.845-71.014c5.693-4.719 10.562-9.138 14.607-13.258 4.12-4.195 7.267-8.503 9.439-12.922 2.247-4.42 3.371-9.326 3.371-14.72 0-5.918-1.274-10.974-3.82-15.169-2.472-4.195-5.918-7.416-10.338-9.663-4.42-2.322-9.513-3.483-15.281-3.483-5.768 0-10.862 1.16-15.282 3.483-4.344 2.322-7.715 5.73-10.112 10.225-2.398 4.494-3.596 9.963-3.596 16.405H437c0-16.18 3.633-30.113 10.899-41.8 7.266-11.685 17.529-20.674 30.788-26.967C491.946 4.146 507.489 1 525.318 1c18.427 0 34.383 2.959 47.867 8.877 13.558 5.843 24.008 14.083 31.349 24.72 7.416 10.637 11.124 23.11 11.124 37.417 0 8.839-1.835 17.64-5.506 26.405-3.67 8.69-10.262 18.315-19.776 28.877-9.513 10.563-23.034 23.147-40.563 37.755l-21.574 17.978v1.348h89.891v49.889H441.495Zm-131.215 6.293c-20.899-.075-38.952-4.907-54.159-14.495-15.206-9.588-26.929-23.409-35.169-41.462-8.24-18.053-12.323-39.702-12.248-64.946.075-25.32 4.195-46.818 12.36-64.497 8.24-17.678 19.926-31.124 35.057-40.338C271.328 5.607 289.381 1 310.28 1c20.9 0 38.953 4.644 54.16 13.933 15.206 9.214 26.929 22.66 35.169 40.339 8.24 17.678 12.323 39.14 12.248 64.384 0 25.394-4.12 47.117-12.36 65.171-8.24 18.053-19.963 31.873-35.17 41.462-15.131 9.513-33.147 14.27-54.047 14.27Zm0-50.788c10.787 0 19.627-5.619 26.518-16.855 6.967-11.311 10.413-29.065 10.338-53.26 0-15.806-1.573-28.728-4.72-38.766-3.146-10.037-7.491-17.453-13.034-22.248-5.543-4.869-11.91-7.303-19.102-7.303-10.786 0-19.588 5.468-26.405 16.405-6.817 10.937-10.3 28.24-10.45 51.912-.075 16.105 1.461 29.364 4.607 39.776 3.146 10.338 7.491 17.979 13.034 22.923 5.618 4.944 12.023 7.416 19.214 7.416ZM5.495 234.266v-44.945l85.845-71.014c5.693-4.719 10.562-9.138 14.607-13.258 4.12-4.195 7.267-8.503 9.439-12.922 2.247-4.42 3.371-9.326 3.371-14.72 0-5.918-1.274-10.974-3.82-15.169-2.472-4.195-5.918-7.416-10.338-9.663-4.42-2.322-9.513-3.483-15.281-3.483-5.768 0-10.862 1.16-15.282 3.483-4.344 2.322-7.715 5.73-10.113 10.225-2.397 4.494-3.595 9.963-3.595 16.405H1c0-16.18 3.633-30.113 10.9-41.8 7.265-11.685 17.528-20.674 30.787-26.967C55.946 4.146 71.489 1 89.317 1c18.428 0 34.384 2.959 47.867 8.877 13.559 5.843 24.009 14.083 31.35 24.72 7.416 10.637 11.124 23.11 11.124 37.417 0 8.839-1.835 17.64-5.506 26.405-3.67 8.69-10.262 18.315-19.776 28.877-9.513 10.563-23.034 23.147-40.563 37.755l-21.574 17.978v1.348h89.891v49.889H5.495Z" mask="url(#a)"/>
</svg>
